<?xml version="1.0" encoding="UTF-8" standalone="no"?>
<!DOCTYPE svg PUBLIC "-//W3C//DTD SVG 1.1//EN" "http://www.w3.org/Graphics/SVG/1.1/DTD/svg11.dtd">
<svg width="100%" height="100%" viewBox="0 0 2977 647" version="1.1" xmlns="http://www.w3.org/2000/svg" xmlns:xlink="http://www.w3.org/1999/xlink" xml:space="preserve" style="fill-rule:evenodd;clip-rule:evenodd;stroke-linejoin:round;stroke-miterlimit:1.41421;">
    <path d="M1075.7,197.861C1030.81,190.413 992.506,186.683 960.786,186.683C866.322,186.683 819.095,231.653 819.095,321.59C819.095,410.142 859.653,454.417 940.768,454.417C964.338,454.417 986.35,450.087 1006.8,441.42C1006.8,483.01 982.016,503.804 932.449,503.804C898.996,503.804 869.012,499.471 842.493,490.808L842.493,545.394C868.492,554.057 898.302,558.391 931.928,558.391C1027.77,558.391 1075.7,518.531 1075.7,438.821L1075.7,197.861L1075.7,197.861ZM2976.38,197.861C2931.49,190.413 2893.18,186.683 2861.47,186.683C2767,186.683 2719.78,231.653 2719.78,321.59C2719.78,410.142 2760.33,454.417 2841.45,454.417C2865.02,454.417 2887.03,450.087 2907.49,441.42C2907.49,483.01 2882.7,503.804 2833.13,503.804C2799.68,503.804 2769.69,499.471 2743.17,490.808L2743.17,545.394C2769.17,554.057 2798.98,558.391 2832.61,558.391C2928.45,558.391 2976.38,518.531 2976.38,438.821L2976.38,197.861L2976.38,197.861ZM1360.13,459.616L1320.1,459.616L1295.65,435.181C1271.91,451.472 1245.74,459.616 1217.14,459.616C1150.41,459.616 1117.05,431.283 1117.05,374.617C1117.05,320.379 1156.56,293.257 1235.6,293.257C1254.14,293.257 1272.69,294.991 1291.24,298.456L1291.24,277.921C1291.24,253.486 1273.64,241.271 1238.46,241.271C1208.65,241.271 1175.54,245.604 1139.14,254.267L1139.14,199.68C1175.54,191.017 1208.65,186.683 1238.46,186.683C1319.57,186.683 1360.13,216.666 1360.13,276.622L1360.13,459.616ZM2683.75,459.616L2643.71,459.616L2619.28,435.181C2595.53,451.472 2569.36,459.616 2540.76,459.616C2474.03,459.616 2440.67,431.283 2440.67,374.617C2440.67,320.379 2480.18,293.257 2559.22,293.257C2577.76,293.257 2596.31,294.991 2614.86,298.456L2614.86,277.921C2614.86,253.486 2597.26,241.271 2562.08,241.271C2532.27,241.271 2499.16,245.604 2462.76,254.267L2462.76,199.68C2499.16,191.017 2532.27,186.683 2562.08,186.683C2643.19,186.683 2683.75,216.666 2683.75,276.622L2683.75,459.616ZM1467.77,186.684L1475.83,226.194C1500.27,199.855 1529.64,186.684 1563.97,186.684C1598.28,186.684 1621.77,199.161 1634.42,224.115C1662.32,199.161 1691.53,186.684 1722.03,186.684C1784.78,186.684 1816.15,221.255 1816.15,290.398L1816.15,459.616L1747.25,459.616L1747.25,287.799C1747.25,257.475 1733.56,242.31 1706.18,242.31C1685.72,242.31 1666.05,251.497 1647.16,269.863L1647.16,459.616L1578.26,459.616L1578.26,288.577C1578.26,257.736 1565.61,242.31 1540.31,242.31C1520.2,242.31 1501.22,251.497 1483.37,269.863L1483.37,459.616L1414.47,459.616L1414.47,186.684L1467.77,186.684ZM2219.93,87.908L2219.93,221.516C2241.42,198.295 2268.89,186.684 2302.35,186.684C2366.99,186.684 2399.32,220.304 2399.32,287.539L2399.32,459.616L2330.42,459.616L2330.42,287.539C2330.42,257.386 2315.43,242.31 2285.45,242.31C2263.09,242.31 2241.25,251.238 2219.93,269.084L2219.93,459.616L2151.03,459.616L2151.03,87.908L2219.93,87.908ZM1926.4,347.323C1926.4,385.794 1954.65,405.029 2011.15,405.029C2038.71,405.029 2066.27,402.43 2093.83,397.231L2093.83,451.817C2069.74,457.016 2040.44,459.615 2005.96,459.615C1906.99,459.615 1857.5,413.087 1857.5,320.03C1857.5,231.132 1900.23,186.684 1985.68,186.684C2068.52,186.684 2109.95,228.968 2109.95,313.533C2109.95,324.799 2109.17,336.06 2107.61,347.323L1926.4,347.323ZM1291.23,345.244L1291.23,388.914C1271.64,403.124 1250.41,410.228 1227.53,410.228C1199.8,410.228 1185.94,398.099 1185.94,373.837C1185.94,351.311 1202.49,340.045 1235.59,340.045C1255.35,340.045 1273.9,341.779 1291.23,345.244L1291.23,345.244ZM2614.85,345.244L2614.85,388.914C2595.26,403.124 2574.03,410.228 2551.15,410.228C2523.42,410.228 2509.56,398.099 2509.56,373.837C2509.56,351.311 2526.11,340.045 2559.21,340.045C2578.97,340.045 2597.52,341.779 2614.85,345.244L2614.85,345.244ZM1006.8,383.194C987.906,392.553 968.582,397.23 948.823,397.23C907.746,397.23 887.207,371.847 887.207,321.071C887.207,268.564 911.037,242.309 958.703,242.309C979.502,242.309 995.531,244.389 1006.8,248.549L1006.8,383.194ZM2907.48,383.194C2888.59,392.553 2869.26,397.23 2849.5,397.23C2808.43,397.23 2787.89,371.847 2787.89,321.071C2787.89,268.564 2811.72,242.309 2859.38,242.309C2880.18,242.309 2896.21,244.389 2907.48,248.549L2907.48,383.194ZM2042.87,299.495L2042.87,297.415C2042.87,259.641 2023.8,240.751 1985.67,240.751C1949.28,240.751 1929.52,260.335 1926.4,299.495L2042.87,299.495Z" style="fill:white;"/>
    <path d="M268.217,596.661C251.649,596.661 238.219,583.232 238.219,566.668C238.219,557.726 242.154,549.719 248.365,544.224C239.568,536.588 231.472,528.173 224.121,519.129C211.631,517.159 199.675,515.006 188.239,512.728C177.615,526.701 171.3,544.125 171.3,563.033C171.3,609.019 208.586,646.299 254.582,646.299C291.848,646.299 323.391,621.825 334.023,588.077C321.129,585.057 308.714,580.797 296.91,575.425C293.161,587.717 281.737,596.661 268.217,596.661" style="fill:white;fill-rule:nonzero;"/>
    <path d="M535.426,519.659C528.187,528.502 520.232,536.735 511.607,544.224C517.816,549.72 521.753,557.725 521.753,566.669C521.753,583.232 508.321,596.661 491.754,596.661C478.233,596.661 466.811,587.716 463.062,575.426C451.258,580.795 438.841,585.056 425.947,588.078C436.581,621.824 468.124,646.298 505.39,646.298C551.385,646.298 588.672,609.019 588.672,563.033C588.672,544.456 582.582,527.307 572.294,513.459C560.74,515.63 548.438,517.72 535.426,519.659" style="fill:white;fill-rule:nonzero;"/>
    <path d="M712.485,408.897C692.8,408.897 670.646,405.523 650.965,399.611C653.287,400.281 655.947,400.581 658.856,400.581C685.108,400.581 731.595,376.052 731.873,375.905C706.68,367.828 665.771,362.167 614.085,358.376C599.206,377.735 507.818,412.746 415.12,412.746C394.172,412.746 373.168,410.959 352.954,406.799C356.469,407.034 360.011,407.146 363.569,407.146C445.251,407.146 548.89,346.325 548.89,341.963C548.89,326.388 533.208,290.546 533.208,290.546C522.012,299.434 503.701,307.219 481.226,314.007L481.341,314.094L453.039,335.631L398.704,376.978C393.355,381.049 386.707,383.29 379.986,383.29C373.264,383.29 366.615,381.049 361.266,376.978L317.801,343.902C249.706,351.886 192.785,355.033 192.785,355.033C190.268,355.09 187.748,355.427 185.268,355.939C74.309,361.664 0,374.039 0,397.258C0,409.211 12.997,417.087 47.233,432.191C47.233,432.191 116.795,423.669 138.4,406.348C149.518,434.575 95.593,453.043 95.593,453.043C165.296,477.017 262.803,497.236 379.986,497.236C589.845,497.236 759.97,432.396 759.97,397.258C750.368,405.323 732.735,408.897 712.485,408.897" style="fill:white;fill-rule:nonzero;"/>
    <path d="M589.012,125.766C554.797,45.941 510.052,42.438 428.461,8.227C346.869,-25.981 383.718,52.964 304.758,125.766C245.396,180.499 223.041,269.446 215.602,310.226C215.602,310.226 240.359,313.862 278.648,314.08L306.932,292.558L361.268,251.211C366.615,247.141 373.264,244.899 379.986,244.899C386.707,244.899 393.355,247.141 398.704,251.211L449.499,289.863C473.588,282.245 497.782,272.376 521.122,259.634C514.143,221.33 470.296,163.901 481.1,147.697C496.893,124.013 591.079,226.64 603.805,228.459C579.564,244.212 563.704,224.091 563.704,224.091C569.292,272.531 615.331,313.197 615.331,313.197C615.331,313.197 596.907,281.903 617.964,239.799C639.02,197.694 623.227,205.59 589.012,125.766" style="fill:white;fill-rule:nonzero;"/>
    <path d="M379.985,271.965C379.167,271.965 378.348,272.226 377.662,272.748L323.327,314.096L377.662,355.441C378.348,355.964 379.167,356.225 379.985,356.225C380.804,356.225 381.622,355.964 382.309,355.441L436.644,314.096L382.309,272.748C381.622,272.226 380.804,271.965 379.985,271.965" style="fill:rgb(34,244,192);fill-rule:nonzero;"/>
</svg>
